<mxfile host="app.diagrams.net" modified="2024-05-26T12:55:36.469Z" agent="Mozilla/5.0 (Macintosh; Intel Mac OS X 10_15_7) AppleWebKit/537.36 (KHTML, like Gecko) Chrome/125.0.0.0 Safari/537.36 Edg/125.0.0.0" version="24.4.8" etag="SfedNkD5LucQTxbM5vQy" type="github">
  <diagram name="第 1 页" id="1XL0fSztFGSmUW34wNpe">
    <mxGraphModel>
      <root>
        <mxCell id="0" />
        <mxCell id="1" parent="0" />
      </root>
    </mxGraphModel>
  </diagram>
</mxfile>
